<svg width="277" height="275" xmlns="http://www.w3.org/2000/svg" xmlns:xlink="http://www.w3.org/1999/xlink" xml:space="preserve" overflow="hidden"><defs><clipPath id="clip0"><rect x="140" y="734" width="277" height="275"/></clipPath><clipPath id="clip1"><rect x="140" y="735" width="277" height="274"/></clipPath><clipPath id="clip2"><rect x="140" y="735" width="278" height="274"/></clipPath><clipPath id="clip3"><rect x="140" y="735" width="278" height="274"/></clipPath></defs><g clip-path="url(#clip0)" transform="translate(-140 -734)"><g clip-path="url(#clip1)"><g clip-path="url(#clip2)"><g clip-path="url(#clip3)"><path d="M264.172 112.85 248.569 112.85C245.577 99.1712 240.448 86.5611 232.753 74.8059L243.867 63.6919C245.577 61.982 246.646 59.4173 246.646 57.0662 246.646 54.5014 245.577 52.1504 243.867 50.4405L223.349 29.9224C221.639 28.2125 219.074 27.1439 216.723 27.1439 214.159 27.1439 211.808 28.2125 210.098 29.9224L198.77 40.8226C187.015 33.3421 174.405 27.9988 160.726 25.0065L160.726 9.40417C160.726 4.27462 156.451 0 151.322 0L122.254 0C117.125 0 112.85 4.27462 112.85 9.40417L112.85 25.0065C99.1712 27.9988 86.5611 33.1283 74.8059 40.8226L63.6919 29.7086C61.982 27.9988 59.4173 26.9301 57.0662 26.9301 54.5014 26.9301 52.1504 27.9988 50.4405 29.7086L29.9224 50.2268C28.2125 51.9367 27.1439 54.5014 27.1439 56.8525 27.1439 59.4173 28.2125 61.7683 29.9224 63.4781L41.0364 74.5922C33.5558 86.3474 28.2125 98.9575 25.2203 112.636L9.40417 112.636C4.27462 112.636 0 116.911 0 122.04L0 151.108C0 156.237 4.27462 160.512 9.40417 160.512L25.0065 160.512C27.9988 174.191 33.1283 186.801 40.8226 198.556L29.7086 209.67C27.9988 211.38 26.9301 213.945 26.9301 216.296 26.9301 218.861 27.9988 221.212 29.7086 222.922L50.2268 243.44C51.9367 245.15 54.5014 246.218 56.8525 246.218 59.4173 246.218 61.7683 245.15 63.4781 243.44L74.5922 232.326C86.3474 239.806 98.9575 245.15 112.636 248.142L112.636 263.744C112.636 268.874 116.911 273.148 122.04 273.148L151.108 273.148C156.237 273.148 160.512 268.874 160.512 263.744L160.512 248.142C170.771 246.005 180.603 242.371 189.793 237.455L156.879 204.327C150.467 206.251 143.841 207.319 136.788 207.319 97.8889 207.319 66.2566 175.687 66.2566 136.788 66.2566 97.8889 97.8889 66.2566 136.788 66.2566 175.687 66.2566 207.319 97.8889 207.319 136.788 207.319 143.841 206.251 150.467 204.327 156.879L237.669 190.221C242.585 181.03 246.218 171.199 248.356 160.94L263.958 160.94C269.087 160.94 273.362 156.665 273.362 151.535L273.362 122.254C273.576 117.125 269.301 112.85 264.172 112.85Z" fill="#AE9579" fill-rule="nonzero" fill-opacity="1" transform="matrix(1.00311 0 0 1 140 735.212)"/><path d="M193.64 158.161C201.548 136.574 196.205 112.423 179.748 95.9653 163.932 80.1492 139.139 73.096 119.262 78.8668 117.766 79.2942 116.697 80.3629 116.27 81.859 115.842 83.3551 116.27 84.8513 117.338 85.9199L146.833 115.415C155.596 124.178 155.596 138.284 146.833 146.833 138.07 155.596 123.964 155.383 115.415 146.833L86.1336 117.552C85.065 116.483 83.5689 116.056 82.0728 116.483 80.5766 116.911 79.508 117.98 79.0805 119.476 73.3098 139.353 80.3629 164.146 96.179 179.962 112.636 196.419 136.788 201.762 158.375 193.854L230.83 266.309C235.745 271.225 242.157 273.576 248.569 273.576 254.981 273.576 261.393 271.225 266.309 266.309 276.141 256.477 276.141 240.661 266.309 230.83L193.64 158.161Z" fill="#AE9579" fill-rule="nonzero" fill-opacity="1" transform="matrix(1.00311 0 0 1 140 735.212)"/></g></g></g></g></svg>